<svg width="20" height="21" viewBox="0 0 20 21" fill="none" xmlns="http://www.w3.org/2000/svg">
<path d="M10 2.55811C5.39763 2.55811 1.66667 6.28907 1.66667 10.8914C1.66667 15.4938 5.39763 19.2248 10 19.2248C14.6024 19.2248 18.3333 15.4938 18.3333 10.8914C18.3333 6.28907 14.6024 2.55811 10 2.55811Z" fill="#90ECF4"/>
<path fill-rule="evenodd" clip-rule="evenodd" d="M13.0893 8.63544C13.4147 8.96087 13.4147 9.48851 13.0893 9.81395L9.75593 13.1473C9.43049 13.4727 8.90285 13.4727 8.57742 13.1473L6.91075 11.4806C6.58531 11.1552 6.58531 10.6275 6.91075 10.3021C7.23619 9.97666 7.76382 9.97666 8.08926 10.3021L9.16667 11.3795L11.9107 8.63544C12.2362 8.31 12.7638 8.31 13.0893 8.63544Z" fill="#444BD3"/>
</svg>
