<svg width="88" height="36" viewBox="0 0 88 36" fill="none" xmlns="http://www.w3.org/2000/svg">
<path d="M33.4982 7.87509V26.8991H40.2916C45.8604 26.8991 49.1346 23.3658 49.1346 17.341C49.1346 11.316 45.8475 7.87509 40.2916 7.87509H33.4982ZM36.8241 10.7491H39.9436C43.6561 10.7491 45.7443 13.0958 45.7443 17.3541C45.7443 21.6914 43.6818 24.025 39.9436 24.025H36.8241V10.7491Z" fill="#121127"/>
<path d="M51.5453 26.8991H54.755V7.87509H51.5453V26.8991Z" fill="#121127"/>
<path d="M66.5372 22.7198C66.1891 23.88 65.0547 24.6446 63.5594 24.6446C61.4582 24.6446 60.1176 23.1417 60.1176 20.9005V20.7027H69.6695V19.6349C69.6695 15.3898 67.2461 12.6344 63.3661 12.6344C59.4215 12.6344 56.9207 15.548 56.9207 19.9645C56.9207 24.4205 59.3957 27.1758 63.495 27.1758C66.7305 27.1758 69.1282 25.3566 69.5407 22.7198H66.5372ZM63.3789 15.1788C65.2223 15.1788 66.4598 16.5632 66.5243 18.5407H60.1434C60.2723 16.5895 61.5743 15.1788 63.3789 15.1788Z" fill="#121127"/>
<path d="M76.8496 21.8892L79.6855 26.899H83.1918L78.8477 19.8326L83.2434 12.9244H79.7242L77.0043 17.8287H76.9398L74.1812 12.9244H70.5718L74.9418 19.9248L70.5332 26.899H73.9493L76.7852 21.8892H76.8496Z" fill="#121127"/>
<path fill-rule="evenodd" clip-rule="evenodd" d="M13.2086 31.4999C20.4947 31.4949 26.3997 25.4528 26.3997 18C26.3997 10.5472 20.4947 4.50494 13.2086 4.5001C18.3711 6.70647 21.9988 11.9199 21.9988 18C21.9988 24.0799 18.3711 29.2934 13.2086 31.4999Z" fill="#121127" fill-opacity="0.32"/>
<path d="M0 9.30054C0 6.64957 2.07363 4.50053 4.63158 4.50053H7.70016C14.9902 4.50053 20.9 10.5446 20.9 18.0004C20.9 25.4562 14.9902 31.5003 7.70016 31.5003H4.63158C2.07363 31.5003 0 29.3512 0 26.7003V9.30054Z" fill="#121127"/>
</svg>
