<svg width="90" height="36" viewBox="0 0 90 36" fill="none" xmlns="http://www.w3.org/2000/svg">
<path d="M34.2596 7.875V26.899H41.2073C46.9027 26.899 50.2513 23.3657 50.2513 17.3409C50.2513 11.3159 46.8895 7.875 41.2073 7.875H34.2596ZM37.661 10.749H40.8514C44.6483 10.749 46.784 13.0957 46.784 17.354C46.784 21.6914 44.6746 24.0249 40.8514 24.0249H37.661V10.749Z" fill="#444BD3"/>
<path d="M52.7168 26.899H55.9994V7.875H52.7168V26.899Z" fill="#444BD3"/>
<path d="M68.0493 22.7199C67.6934 23.8801 66.5332 24.6447 65.0039 24.6447C62.855 24.6447 61.4838 23.1418 61.4838 20.9006V20.7028H71.2529V19.6349C71.2529 15.3899 68.7744 12.6345 64.8062 12.6345C60.7719 12.6345 58.2144 15.548 58.2144 19.9646C58.2144 24.4206 60.7456 27.1759 64.938 27.1759C68.2471 27.1759 70.6993 25.3567 71.1212 22.7199H68.0493ZM64.8194 15.1789C66.7046 15.1789 67.9703 16.5632 68.0362 18.5408H61.5103C61.6421 16.5896 62.9737 15.1789 64.8194 15.1789Z" fill="#444BD3"/>
<path d="M78.5962 21.8891L81.4966 26.8989H85.0825L80.6397 19.8325L85.1353 12.9243H81.5362L78.7544 17.8286H78.6884L75.8672 12.9243H72.1757L76.645 19.9247L72.1362 26.8989H75.6299L78.5303 21.8891H78.5962Z" fill="#444BD3"/>
<path fill-rule="evenodd" clip-rule="evenodd" d="M13.5088 31.4998C20.9605 31.4948 26.9997 25.4527 26.9997 17.9999C26.9997 10.5471 20.9605 4.50485 13.5088 4.5C18.7887 6.70637 22.4988 11.9198 22.4988 17.9999C22.4988 24.0798 18.7887 29.2933 13.5088 31.4998Z" fill="#444BD3" fill-opacity="0.32"/>
<path d="M0 9.30049C0 6.64952 2.12076 4.50049 4.73684 4.50049H7.87517C15.3309 4.50049 21.375 10.5446 21.375 18.0003C21.375 25.4562 15.3309 31.5002 7.87517 31.5002H4.73684C2.12076 31.5002 0 29.3512 0 26.7002V9.30049Z" fill="#444BD3"/>
</svg>
