<svg width="48" height="48" viewBox="0 0 48 48" fill="none" xmlns="http://www.w3.org/2000/svg">
<path d="M26.818 3.18198C28.5754 1.42462 31.4246 1.42462 33.182 3.18198L44.818 14.818C46.5754 16.5754 46.5754 19.4246 44.818 21.182L33.182 32.818C31.4246 34.5754 28.5754 34.5754 26.818 32.818L15.182 21.182C13.4246 19.4246 13.4246 16.5754 15.182 14.818L26.818 3.18198Z" fill="url(#paint0_linear_427_86)"/>
<path d="M5.33333 44C5.33333 43.2636 5.93028 42.6666 6.66666 42.6666H25.3333C26.0697 42.6666 26.6667 43.2636 26.6667 44C26.6667 44.7363 26.0697 45.3333 25.3333 45.3333H6.66666C5.93028 45.3333 5.33333 44.7363 5.33333 44Z" fill="#90ECF4"/>
<path d="M18.2783 19.8362C19.8404 18.2741 22.373 18.2742 23.9351 19.8362L25.4972 21.3983C27.0593 22.9604 27.0593 25.4931 25.4972 27.0552L24.9429 27.6095L17.7239 20.3906L18.2783 19.8362Z" fill="#444BD3"/>
<path d="M7.72929 30.3959C7.54631 30.6142 7.41159 30.8695 7.33495 31.1453L5.39177 38.1356C5.08612 39.2352 6.09811 40.2472 7.19766 39.9415L14.1881 37.9984C14.4638 37.9217 14.7191 37.787 14.9374 37.604L7.72929 30.3959Z" fill="#444BD3"/>
<path d="M24.9429 27.6096L17.7239 20.3906L7.84768 30.2667C7.80625 30.3082 7.76676 30.3513 7.72929 30.396L14.9374 37.6041C14.9821 37.5666 15.0252 37.5271 15.0666 37.4857L24.9429 27.6096Z" fill="#90ECF4"/>
<defs>
<linearGradient id="paint0_linear_427_86" x1="30" y1="0" x2="30" y2="36" gradientUnits="userSpaceOnUse">
<stop stop-color="#DEDEDE"/>
<stop offset="1" stop-color="#DEDEDE" stop-opacity="0"/>
</linearGradient>
</defs>
</svg>
