<svg width="48" height="48" viewBox="0 0 48 48" fill="none" xmlns="http://www.w3.org/2000/svg">
<path d="M26.818 3.18198C28.5754 1.42462 31.4246 1.42462 33.182 3.18198L44.818 14.818C46.5754 16.5754 46.5754 19.4246 44.818 21.182L33.182 32.818C31.4246 34.5754 28.5754 34.5754 26.818 32.818L15.182 21.182C13.4246 19.4246 13.4246 16.5754 15.182 14.818L26.818 3.18198Z" fill="url(#paint0_linear_427_69)"/>
<path d="M5.33335 21.3334C3.86059 21.3334 2.66669 22.5273 2.66669 24V37.3334C2.66669 38.8061 3.86059 40 5.33335 40H18.6667V24C18.6667 22.5273 17.4728 21.3334 16 21.3334H5.33335Z" fill="#90ECF4"/>
<path d="M22.1501 25.3334H18.6667V40H26.6667C28.1394 40 29.3334 38.8061 29.3334 37.3334V32.1181C29.3334 31.3682 29.0176 30.6529 28.4634 30.1476L23.9468 26.0295C23.4556 25.5816 22.8148 25.3334 22.1501 25.3334Z" fill="#444BD3"/>
<path fill-rule="evenodd" clip-rule="evenodd" d="M9.33335 42.6667C10.8061 42.6667 12 41.4728 12 40C12 38.5273 10.8061 37.3334 9.33335 37.3334C7.86059 37.3334 6.66669 38.5273 6.66669 40C6.66669 41.4728 7.86059 42.6667 9.33335 42.6667ZM25.8856 41.8857C26.3857 41.3856 26.6667 40.7073 26.6667 40H24L21.3334 40C21.3334 40.7073 21.6143 41.3856 22.1144 41.8857C22.6145 42.3858 23.2928 42.6667 24 42.6667C24.7073 42.6667 25.3855 42.3858 25.8856 41.8857Z" fill="#444BD3"/>
<defs>
<linearGradient id="paint0_linear_427_69" x1="30" y1="0" x2="30" y2="36" gradientUnits="userSpaceOnUse">
<stop stop-color="#DEDEDE"/>
<stop offset="1" stop-color="#DEDEDE" stop-opacity="0"/>
</linearGradient>
</defs>
</svg>
