<svg width="48" height="48" viewBox="0 0 48 48" fill="none" xmlns="http://www.w3.org/2000/svg">
<path d="M26.818 3.18198C28.5754 1.42462 31.4246 1.42462 33.182 3.18198L44.818 14.818C46.5754 16.5754 46.5754 19.4246 44.818 21.182L33.182 32.818C31.4246 34.5754 28.5754 34.5754 26.818 32.818L15.182 21.182C13.4246 19.4246 13.4246 16.5754 15.182 14.818L26.818 3.18198Z" fill="url(#paint0_linear_427_53)"/>
<path d="M4 39.0329V28.5333C4 25.5464 4 24.0529 4.5813 22.9121C5.09262 21.9085 5.90852 21.0926 6.91205 20.5813C8.05291 20 9.54639 20 12.5333 20H19.4667C22.4536 20 23.9471 20 25.0879 20.5813C26.0915 21.0926 26.9074 21.9085 27.4187 22.9121C28 24.0529 28 25.5464 28 28.5333V30.1333C28 33.1203 28 34.6138 27.4187 35.7546C26.9074 36.7581 26.0915 37.574 25.0879 38.0854C23.9471 38.6667 22.4536 38.6667 19.4667 38.6667H13.8122C13.1439 38.6667 12.8098 38.6667 12.4962 38.7437C12.2182 38.812 11.9531 38.9247 11.7109 39.0773C11.4378 39.2494 11.2057 39.4899 10.7417 39.9708L9.50288 41.2548C7.7828 43.0376 6.92275 43.929 6.18189 43.9967C5.5393 44.0554 4.90788 43.8004 4.48619 43.312C4 42.7489 4 41.5103 4 39.0329Z" fill="#90ECF4"/>
<path d="M10.6667 25.3334C9.93033 25.3334 9.33337 25.9303 9.33337 26.6667C9.33337 27.4031 9.93033 28 10.6667 28H21.3334C22.0698 28 22.6667 27.4031 22.6667 26.6667C22.6667 25.9303 22.0698 25.3334 21.3334 25.3334H10.6667Z" fill="#444BD3"/>
<path d="M10.6667 30.6667C9.93033 30.6667 9.33337 31.2637 9.33337 32C9.33337 32.7364 9.93033 33.3334 10.6667 33.3334H14.6667C15.4031 33.3334 16 32.7364 16 32C16 31.2637 15.4031 30.6667 14.6667 30.6667H10.6667Z" fill="#444BD3"/>
<defs>
<linearGradient id="paint0_linear_427_53" x1="30" y1="0" x2="30" y2="36" gradientUnits="userSpaceOnUse">
<stop stop-color="#DEDEDE"/>
<stop offset="1" stop-color="#DEDEDE" stop-opacity="0"/>
</linearGradient>
</defs>
</svg>
